<?xml version="1.0" encoding="UTF-8" standalone="no"?>
<!DOCTYPE svg PUBLIC "-//W3C//DTD SVG 1.1//EN"
 "http://www.w3.org/Graphics/SVG/1.1/DTD/svg11.dtd">
<!-- Generated by graphviz version 12.2.1 (20241206.2353)
 -->
<!-- Title: src/today.cpp Pages: 1 -->
<svg width="246pt" height="83pt"
 viewBox="0.00 0.00 245.62 82.50" xmlns="http://www.w3.org/2000/svg" xmlns:xlink="http://www.w3.org/1999/xlink">
<g id="graph0" class="graph" transform="scale(1 1) rotate(0) translate(4 78.5)">
<title>src/today.cpp</title>
<!-- Node1 -->
<g id="Node000001" class="node">
<title>Node1</title>
<g id="a_Node000001"><a xlink:title="Prints the current date in the YY/MM/DD = Www format.">
<polygon fill="#999999" stroke="#666666" points="155.5,-74.5 81.75,-74.5 81.75,-55.25 155.5,-55.25 155.5,-74.5"/>
<text text-anchor="middle" x="118.62" y="-61" font-family="Helvetica,sans-Serif" font-size="10.00">src/today.cpp</text>
</a>
</g>
</g>
<!-- Node2 -->
<g id="Node000002" class="node">
<title>Node2</title>
<g id="a_Node000002"><a xlink:title=" ">
<polygon fill="#e0e0e0" stroke="#999999" points="45.25,-19.25 0,-19.25 0,0 45.25,0 45.25,-19.25"/>
<text text-anchor="middle" x="22.62" y="-5.75" font-family="Helvetica,sans-Serif" font-size="10.00">chrono</text>
</a>
</g>
</g>
<!-- Node1&#45;&gt;Node2 -->
<g id="edge1_Node000001_Node000002" class="edge">
<title>Node1&#45;&gt;Node2</title>
<g id="a_edge1_Node000001_Node000002"><a xlink:title=" ">
<path fill="none" stroke="#63b8ff" d="M102.34,-54.84C87.72,-46.73 66,-34.68 48.92,-25.21"/>
<polygon fill="#63b8ff" stroke="#63b8ff" points="50.76,-22.23 40.31,-20.44 47.36,-28.35 50.76,-22.23"/>
</a>
</g>
</g>
<!-- Node3 -->
<g id="Node000003" class="node">
<title>Node3</title>
<g id="a_Node000003"><a xlink:title=" ">
<polygon fill="#e0e0e0" stroke="#999999" points="107.5,-19.25 63.75,-19.25 63.75,0 107.5,0 107.5,-19.25"/>
<text text-anchor="middle" x="85.62" y="-5.75" font-family="Helvetica,sans-Serif" font-size="10.00">format</text>
</a>
</g>
</g>
<!-- Node1&#45;&gt;Node3 -->
<g id="edge2_Node000001_Node000003" class="edge">
<title>Node1&#45;&gt;Node3</title>
<g id="a_edge2_Node000001_Node000003"><a xlink:title=" ">
<path fill="none" stroke="#63b8ff" d="M113.18,-55.08C108.85,-48.11 102.66,-38.12 97.24,-29.37"/>
<polygon fill="#63b8ff" stroke="#63b8ff" points="100.23,-27.55 91.99,-20.9 94.28,-31.24 100.23,-27.55"/>
</a>
</g>
</g>
<!-- Node4 -->
<g id="Node000004" class="node">
<title>Node4</title>
<g id="a_Node000004"><a xlink:title=" ">
<polygon fill="#e0e0e0" stroke="#999999" points="179.38,-19.25 125.88,-19.25 125.88,0 179.38,0 179.38,-19.25"/>
<text text-anchor="middle" x="152.62" y="-5.75" font-family="Helvetica,sans-Serif" font-size="10.00">iostream</text>
</a>
</g>
</g>
<!-- Node1&#45;&gt;Node4 -->
<g id="edge3_Node000001_Node000004" class="edge">
<title>Node1&#45;&gt;Node4</title>
<g id="a_edge3_Node000001_Node000004"><a xlink:title=" ">
<path fill="none" stroke="#63b8ff" d="M124.24,-55.08C128.74,-48.03 135.21,-37.9 140.84,-29.08"/>
<polygon fill="#63b8ff" stroke="#63b8ff" points="143.64,-31.2 146.07,-20.88 137.74,-27.43 143.64,-31.2"/>
</a>
</g>
</g>
<!-- Node5 -->
<g id="Node000005" class="node">
<title>Node5</title>
<g id="a_Node000005"><a xlink:title=" ">
<polygon fill="#e0e0e0" stroke="#999999" points="237.62,-19.25 197.62,-19.25 197.62,0 237.62,0 237.62,-19.25"/>
<text text-anchor="middle" x="217.62" y="-5.75" font-family="Helvetica,sans-Serif" font-size="10.00">string</text>
</a>
</g>
</g>
<!-- Node1&#45;&gt;Node5 -->
<g id="edge4_Node000001_Node000005" class="edge">
<title>Node1&#45;&gt;Node5</title>
<g id="a_edge4_Node000001_Node000005"><a xlink:title=" ">
<path fill="none" stroke="#63b8ff" d="M135.42,-54.84C150.64,-46.66 173.32,-34.46 191.01,-24.94"/>
<polygon fill="#63b8ff" stroke="#63b8ff" points="192.27,-28.24 199.42,-20.42 188.95,-22.07 192.27,-28.24"/>
</a>
</g>
</g>
</g>
</svg>
