<!-- shape in color on transparent background with width=360, height=200 -->
<svg xmlns="http://www.w3.org/2000/svg" version="1.1" xmlns:xlink="http://www.w3.org/1999/xlink" width="360" height="200" viewBox="400 5 700 365">
    <svg xml:space="preserve" width="1500" height="365" data-version="2" data-id="lg_M6dTbflrFtYFWQIuOf" viewBox="0 0 571 365" x="0" y="0">
        <rect width="100%" height="100%" fill="transparent"></rect>
        <rect width="406.63" height="168.37" x="-203.31" y="-84.18" fill="#833ea1" rx="0" ry="0" transform="translate(285.5 119.45)scale(1.3772)"></rect>
        <path fill="#833ea1" d="M98.56 360.484q-8.26 0-14.04-3.71-5.79-3.72-8.85-12.98-3.07-9.27-3.07-25.79t3.01-25.78q3.01-9.26 8.55-12.98 5.55-3.72 13.22-3.72 5.31 0 10.2.71 4.9.71 7.5 1.65v5.31H99.74q-4.72 0-8.44 2.95-3.72 2.95-5.9 10.45-2.18 7.49-2.18 21.41 0 13.81 2.24 21.36 2.24 7.55 6.19 10.5 3.96 2.95 9.27 2.95h15.34v5.31q-2.6.83-7.5 1.6-4.89.76-10.2.76" paint-order="stroke"></path>
        <rect width="43.66" height="84.96" x="-21.83" y="-42.48" fill="none" rx="0" ry="0" transform="translate(94.93 318.5)"></rect>
        <path fill="#833ea1" d="M126.29 359.304v-81.42q4.48-1.29 9.02-1.83 4.55-.53 9.86-.53 9.44 0 15.16 2.72 5.72 2.71 8.26 9.14 2.54 6.43 2.54 17.64 0 11.45-2.42 18.06-2.42 6.61-7.38 9.32-4.95 2.71-12.62 2.71-2.6 0-6.08-.35t-5.72-.83v25.37Zm10.62-32.45h8.26q5.31 0 8.73-1.88 3.42-1.89 5.01-6.67 1.6-4.78 1.6-13.28 0-8.61-1.6-13.33-1.59-4.72-5.01-6.61-3.42-1.89-8.73-1.89h-8.26Z" paint-order="stroke"></path>
        <rect width="44.84" height="83.78" x="-22.42" y="-41.89" fill="none" rx="0" ry="0" transform="translate(149.21 317.91)"></rect>
        <path fill="#833ea1" d="M184.11 359.304v-81.42q4.48-1.29 9.02-1.83 4.55-.53 9.86-.53 9.44 0 15.16 2.72 5.72 2.71 8.26 9.14 2.54 6.43 2.54 17.64 0 11.45-2.42 18.06-2.42 6.61-7.38 9.32-4.95 2.71-12.62 2.71-2.6 0-6.08-.35t-5.72-.83v25.37Zm10.62-32.45h8.26q5.31 0 8.73-1.88 3.42-1.89 5.01-6.67 1.6-4.78 1.6-13.28 0-8.61-1.6-13.33-1.59-4.72-5.01-6.61-3.42-1.89-8.73-1.89h-8.26Z" paint-order="stroke"></path>
        <rect width="44.84" height="83.78" x="-22.42" y="-41.89" fill="none" rx="0" ry="0" transform="translate(207.03 317.91)"></rect>
        <path fill="#833ea1" d="M253.73 359.304v-74.34h-18.88v-8.26h48.38v8.26h-18.88v74.34Z" paint-order="stroke"></path>
        <rect width="48.38" height="82.6" x="-24.19" y="-41.3" fill="none" rx="0" ry="0" transform="translate(259.54 318.5)"></rect>
        <path fill="#833ea1" d="M313.32 360.484q-7.91 0-13.63-3.71-5.72-3.72-8.73-12.98-3.01-9.27-3.01-25.79t3.01-25.78q3.01-9.26 8.73-12.98 5.72-3.72 13.63-3.72 8.02 0 13.69 3.72 5.66 3.72 8.67 12.98t3.01 25.78q0 16.52-3.01 25.79-3.01 9.26-8.67 12.98-5.67 3.71-13.69 3.71m0-7.08q2.83 0 5.48-1.59 2.66-1.59 4.78-5.49 2.13-3.89 3.31-10.79 1.18-6.91 1.18-17.53 0-10.62-1.18-17.52t-3.31-10.8q-2.12-3.89-4.78-5.48-2.65-1.6-5.48-1.6-2.83 0-5.49 1.6-2.65 1.59-4.78 5.48-2.12 3.9-3.3 10.8-1.18 6.9-1.18 17.52t1.18 17.53q1.18 6.9 3.3 10.79 2.13 3.9 4.78 5.49 2.66 1.59 5.49 1.59" paint-order="stroke"></path>
        <rect width="50.74" height="84.96" x="-25.37" y="-42.48" fill="none" rx="0" ry="0" transform="translate(313.82 318.5)"></rect>
        <path fill="#833ea1" d="M371.73 360.484q-5.31 0-9.86-.53-4.54-.53-9.02-1.83v-80.24q4.48-1.29 9.02-1.83 4.55-.53 9.86-.53 9.44 0 15.75 3.72 6.31 3.72 9.44 12.98t3.13 25.78q0 16.52-3.13 25.79-3.13 9.26-9.44 12.98-6.31 3.71-15.75 3.71m-8.26-7.67h8.26q5.31 0 9.26-2.95t6.2-10.5q2.24-7.55 2.24-21.36 0-13.92-2.24-21.41-2.25-7.5-6.2-10.45-3.95-2.95-9.26-2.95h-8.26Z" paint-order="stroke"></path>
        <rect width="47.2" height="84.96" x="-23.6" y="-42.48" fill="none" rx="0" ry="0" transform="translate(376.95 318.5)"></rect>
        <path fill="#833ea1" d="m405.95 359.304 20.06-82.6h15.34l20.06 82.6h-10.62l-5.31-21.24h-23.6l-5.31 21.24Zm17.7-29.5h20.06l-9.8-41.3h-.47Z" paint-order="stroke"></path>
        <rect width="55.46" height="82.6" x="-27.73" y="-41.3" fill="none" rx="0" ry="0" transform="translate(434.18 318.5)"></rect>
        <path fill="#833ea1" d="M480.29 359.304v-25.96l-20.06-56.64h10.62l14.75 41.89 14.75-41.89h10.62l-20.06 56.64v25.96Z" paint-order="stroke"></path>
        <rect width="50.74" height="82.6" x="-25.37" y="-41.3" fill="none" rx="0" ry="0" transform="translate(486.1 318.5)"></rect>
        <path fill="#f2f2f2" d="M147.6 228.424q-22.5 0-36.3-9.45-13.8-9.45-17.4-33-3.6-23.55 3.6-65.55 7.5-42 19.35-65.55 11.85-23.55 28.35-33t37.5-9.45q15 0 27.15 1.8 12.15 1.8 18.45 4.2l-2.7 15.6h-36.9q-12.6 0-23.55 7.35-10.95 7.35-19.8 25.95-8.85 18.6-14.85 53.1-6 34.2-3.6 52.95t11.4 26.1q9 7.35 22.8 7.35h37.2l-3 15.6q-6.9 2.1-19.8 4.05-12.9 1.95-27.9 1.95"></path>
        <rect width="136.76" height="216" x="-68.38" y="-108" fill="none" rx="0" ry="0" transform="translate(160.42 120.92)"></rect>
        <path fill="#f2f2f2" d="m251.7 197.524 9-50.7H216l4.2-22.8h44.4l9-50.7h26.1l-9 50.7h44.4l-3.9 22.8h-44.7l-8.7 50.7Z"></path>
        <rect width="119.1" height="124.2" x="-59.55" y="-62.1" fill="none" rx="0" ry="0" transform="translate(276.05 135.92)"></rect>
        <path fill="#f2f2f2" d="m384.6 197.524 9-50.7h-44.7l4.2-22.8h44.4l9-50.7h26.1l-9 50.7H468l-3.9 22.8h-44.7l-8.7 50.7Z"></path>
        <rect width="119.1" height="124.2" x="-59.55" y="-62.1" fill="none" rx="0" ry="0" transform="translate(408.95 135.92)"></rect>
    </svg>
</svg>
